{"title":"Party Hardcore Gone Crazy Vol 5 576p WEB-DL XXX XViD-BTRG","uid":9230108,"size":2306091008,"categoryP":"porn","categoryS":"movies","magnet":"?xt=urn:btih:691726aa4dbcb8aa70ec0846f5bfb0ab0f5519bc&amp;dn=Party+Hardcore+Gone+Crazy+Vol+5+576p+WEB-DL+XXX+XViD-BTRG&amp;tr=udp%3A%2F%2Ftracker.openbittorrent.com%3A80&amp;tr=udp%3A%2F%2Fopen.demonii.com%3A1337&amp;tr=udp%3A%2F%2Ftracker.coppersurfer.tk%3A6969&amp;tr=udp%3A%2F%2Fexodus.desync.com%3A6969","seeders":1,"leechers":0,"uploader":"BTRG","files":1,"time":1385059581,"description":"Format                                   : AVI\nFormat/Info                              : Audio Video Interleave\nFormat profile                           : OpenDML\nFile size                                : 2.15 GiB\nDuration                                 : 3h 1mn\nOverall bit rate                         : 1 691 Kbps\nWriting application                      : VirtualDubMod 1.5.10.3 | www.virtualdub-fr.org || (build 2550/release)\nWriting library                          : VirtualDubMod build 2550/release\n\nVideo\nID                                       : 0\nFormat                                   : MPEG-4 Visual\nFormat profile                           : Advanced Simple@L5\nFormat settings, BVOP                    : 2\nFormat settings, QPel                    : No\nFormat settings, GMC                     : No warppoints\nFormat settings, Matrix                  : Default (H.263)\nCodec ID                                 : XVID\nCodec ID/Hint                            : XviD\nDuration                                 : 3h 1mn\nBit rate                                 : 1 614 Kbps\nWidth                                    : 1 024 pixels\nHeight                                   : 576 pixels\nDisplay aspect ratio                     : 16:9\nFrame rate                               : 25.000 fps\nColor space                              : YUV\nChroma subsampling                       : 4:2:0\nBit depth                                : 8 bits\nScan type                                : Progressive\nCompression mode                         : Lossy\nBits/(Pixel*Frame)                       : 0.109\nStream size                              : 2.05 GiB (95%)\nWriting library                          : XviD 1.2.1 (UTC 2008-12-04)\n\nAudio\nID                                       : 1\nFormat                                   : AC-3\nFormat/Info                              : Audio Coding 3\nMode extension                           : CM (complete main)\nFormat settings, Endianness              : Big\nCodec ID                                 : 2000\nDuration                                 : 3h 1mn\nBit rate mode                            : Constant\nBit rate                                 : 64.0 Kbps\nChannel(s)                               : 2 channels\nChannel positions                        : Front: L R\nSampling rate                            : 44.1 KHz\nBit depth                                : 16 bits\nCompression mode                         : Lossy\nStream size                              : 83.3 MiB (4%)\nAlignment                                : Split accross interleaves\nInterleave, duration                     : 40 ms (1.00 video frame)\nInterleave, preload duration             : 500 ms\n &lt;a href=&quot;\nhttp://img3.picload.org/image/oiowdic/party.hardcore.g.jpg&quot; rel=&quot;nofollow&quot; target=&quot;_NEW&quot;&gt;\nhttp://img3.picload.org/image/oiowdic/party.hardcore.g.jpg&lt;/a&gt;","torrent":{"xt":"urn:btih:691726aa4dbcb8aa70ec0846f5bfb0ab0f5519bc","amp;dn":"Party+Hardcore+Gone+Crazy+Vol+5+576p+WEB-DL+XXX+XViD-BTRG","amp;tr":["udp%3A%2F%2Ftracker.openbittorrent.com%3A80","udp%3A%2F%2Fopen.demonii.com%3A1337","udp%3A%2F%2Ftracker.coppersurfer.tk%3A6969","udp%3A%2F%2Fexodus.desync.com%3A6969"],"infoHash":"691726aa4dbcb8aa70ec0846f5bfb0ab0f5519bc","infoHashBuffer":{"type":"Buffer","data":[105,23,38,170,77,188,184,170,112,236,8,70,245,191,176,171,15,85,25,188]},"announce":[],"urlList":[]}}